# xmcd
#
# Track frame offsets:
#	150
#	18738
#	45392
#	65379
#	86749
#	112136
#	136004
#	159579
#	184268
#	230183
#	263442
#	288647
#
# Disc length: 4233 seconds
#
# Revision: 0
# Processed by: cddbd v1.4PL0 Copyright (c) Steve Scherf et al.
# Submitted via: dBpowerAMP V4.0
#
DISCID=aa10870c
DTITLE=Dave Matthews Band - Lillywhite Sessions
DYEAR=2001
DGENRE=Blues
TTITLE0=Dave Matthews Band - Lillywhite Sessions - Busted Stuff
TTITLE1=Dave Matthews Band - Lillywhite Sessions - Grey Street
TTITLE2=Dave Matthews Band - Lillywhite Sessions - Diggin' a Ditch
TTITLE3=Dave Matthews Band - Lillywhite Sessions - Sweet Up and Down
TTITLE4=Dave Matthews Band - Lillywhite Sessions - JTR
TTITLE5=Dave Matthews Band - Lillywhite Sessions - Big Eyed Fish
TTITLE6=Dave Matthews Band - Lillywhite Sessions - Grace is Gone
TTITLE7=Dave Matthews Band - Lillywhite Sessions - Captain
TTITLE8=Dave Matthews Band - Lillywhite Sessions - Bartender
TTITLE9=Dave Matthews Band - Lillywhite Sessions - Monkey Man
TTITLE10=Dave Matthews Band - Lillywhite Sessions - Kit Kat Jam
TTITLE11=Dave Matthews Band - Lillywhite Sessions - Raven
EXTD=
EXTT0=
EXTT1=
EXTT2=
EXTT3=
EXTT4=
EXTT5=
EXTT6=
EXTT7=
EXTT8=
EXTT9=
EXTT10=
EXTT11=
PLAYORDER=
